<?xml version="1.0" encoding="UTF-8" standalone="no"?>
<!-- http://code.google.com/p/vector-playing-cards/ -->

<svg
   xmlns:dc="http://purl.org/dc/elements/1.1/"
   xmlns:cc="http://creativecommons.org/ns#"
   xmlns:rdf="http://www.w3.org/1999/02/22-rdf-syntax-ns#"
   xmlns:svg="http://www.w3.org/2000/svg"
   xmlns="http://www.w3.org/2000/svg"
   xmlns:xlink="http://www.w3.org/1999/xlink"
   xmlns:sodipodi="http://sodipodi.sourceforge.net/DTD/sodipodi-0.dtd"
   xmlns:inkscape="http://www.inkscape.org/namespaces/inkscape"
   width="242.66699pt"
   height="167.08691pt"
   viewBox="0 0 242.66699 167.08691"
   xml:space="preserve"
   id="svg2"
   version="1.1"
   inkscape:version="0.91 r13725"
   sodipodi:docname="5c04.svg"
   inkscape:export-filename="/home/byron/art/cards/final/PNGs/5_of_clubs.png"
   inkscape:export-xdpi="215.44792"
   inkscape:export-ydpi="215.44792"><metadata
     id="metadata43"><rdf:RDF><cc:Work
         rdf:about=""><dc:format>image/svg+xml</dc:format><dc:type
           rdf:resource="http://purl.org/dc/dcmitype/StillImage" /><dc:title></dc:title></cc:Work></rdf:RDF></metadata><defs
     id="defs41"><radialGradient
       inkscape:collect="always"
       xlink:href="#linearGradient2984"
       id="radialGradient3760"
       cx="48.231091"
       cy="18.137882"
       fx="48.231091"
       fy="18.137882"
       r="9.5"
       gradientUnits="userSpaceOnUse"
       gradientTransform="matrix(-1.5605256,0.01828294,-0.02684055,-2.2909528,123.98377,58.809108)" /><linearGradient
       id="linearGradient2984"><stop
         style="stop-color:#000000;stop-opacity:1;"
         offset="0"
         id="stop2986" /><stop
         style="stop-color:#000000;stop-opacity:0.65648854;"
         offset="1"
         id="stop2988" /></linearGradient><radialGradient
       inkscape:collect="always"
       xlink:href="#linearGradient3784"
       id="radialGradient3792"
       cx="171.48665"
       cy="511.22299"
       fx="171.48665"
       fy="511.22299"
       r="81.902771"
       gradientTransform="matrix(1.1529891,-0.67391547,0.39482025,0.67549043,-233.63262,270.40076)"
       gradientUnits="userSpaceOnUse" /><linearGradient
       id="linearGradient3784"><stop
         style="stop-color:#ffffff;stop-opacity:0.53435117;"
         offset="0"
         id="stop3786" /><stop
         style="stop-color:#000000;stop-opacity:0;"
         offset="1"
         id="stop3788" /></linearGradient><radialGradient
       r="81.902771"
       fy="511.22299"
       fx="171.48665"
       cy="511.22299"
       cx="171.48665"
       gradientTransform="matrix(1.1529891,-0.67391547,0.39482025,0.67549043,-233.63262,270.40076)"
       gradientUnits="userSpaceOnUse"
       id="radialGradient3855"
       xlink:href="#linearGradient3784-4"
       inkscape:collect="always" /><linearGradient
       id="linearGradient3784-4"><stop
         style="stop-color:#ffffff;stop-opacity:0.51908398;"
         offset="0"
         id="stop3786-8" /><stop
         style="stop-color:#000000;stop-opacity:0;"
         offset="1"
         id="stop3788-6" /></linearGradient><radialGradient
       r="81.902771"
       fy="461.84113"
       fx="181.69392"
       cy="461.84113"
       cx="181.69392"
       gradientTransform="matrix(1.1529891,-0.67391547,0.39482025,0.67549043,-233.63262,270.40076)"
       gradientUnits="userSpaceOnUse"
       id="radialGradient3916"
       xlink:href="#linearGradient3784-3"
       inkscape:collect="always" /><linearGradient
       id="linearGradient3784-3"><stop
         style="stop-color:#ffffff;stop-opacity:0.70229006;"
         offset="0"
         id="stop3786-86" /><stop
         style="stop-color:#000000;stop-opacity:0;"
         offset="1"
         id="stop3788-2" /></linearGradient></defs><sodipodi:namedview
     pagecolor="#ffffff"
     bordercolor="#666666"
     borderopacity="1"
     objecttolerance="10"
     gridtolerance="10"
     guidetolerance="10"
     inkscape:pageopacity="0"
     inkscape:pageshadow="2"
     inkscape:window-width="1329"
     inkscape:window-height="744"
     id="namedview39"
     showgrid="false"
     inkscape:zoom="2.4336873"
     inkscape:cx="164.86731"
     inkscape:cy="100.92931"
     inkscape:window-x="37"
     inkscape:window-y="24"
     inkscape:window-maximized="1"
     inkscape:current-layer="svg2"
     fit-margin-top="0"
     fit-margin-left="0"
     fit-margin-right="0"
     fit-margin-bottom="0" /><g
     id="g4419"
     transform="matrix(0,-1,1,0,0,167.08691)"><g
       style="clip-rule:nonzero;fill-rule:nonzero;stroke:#000000;stroke-miterlimit:4"
       id="Layer_x0020_1"><path
         id="path5"
         d="m 166.83691,235.54785 c 0,3.77735 -3.08691,6.86914 -6.87109,6.86914 l -152.8549802,0 C 3.3359375,242.41699 0.25,239.3252 0.25,235.54785 L 0.25,7.1201172 C 0.25,3.3427734 3.3359375,0.25 7.1108398,0.25 l 152.8549802,0 c 3.78418,0 6.87109,3.0927734 6.87109,6.8701172 l 0,228.4277328 z"
         style="fill:#ffffff;stroke-width:0.5"
         inkscape:connector-curvature="0" /><g
         id="g7"
         style="stroke:none"><g
           id="g9" /></g><g
         id="g15" /><g
         id="g19" /><g
         id="g23"
         style="stroke:none"><g
           id="g25" /></g><g
         id="g31"
         style="stroke:none"><g
           id="g33" /></g></g><text
       sodipodi:linespacing="125%"
       id="text3788"
       y="27.548409"
       x="8.3105459"
       style="font-style:normal;font-weight:normal;font-size:32px;line-height:125%;font-family:'Bitstream Vera Sans';letter-spacing:0px;word-spacing:0px;fill:#000000;fill-opacity:1;stroke:none"
       xml:space="preserve"><tspan
         style="font-style:normal;font-variant:normal;font-weight:normal;font-stretch:normal;font-family:Arial;-inkscape-font-specification:Arial"
         y="27.548409"
         x="8.3105459"
         id="tspan3790"
         sodipodi:role="line">5</tspan></text>
<g
       id="layer1-1-4"
       transform="matrix(1.4856506,0,0,1.4856506,-54.024661,10.018072)"><path
         style="fill:#000000"
         inkscape:connector-curvature="0"
         d="m 50.291466,22.698228 c 0,0 2.375,-1.9 2.375,-4.534 0,-1.542 -1.369,-4.102 -4.534,-4.102 -3.165,0 -4.534,2.561 -4.534,4.102 0,2.634 2.375,4.534 2.375,4.534 -2.638,-2.055 -7.341,-0.652 -7.341,3.455 0,2.056 1.68,4.318 4.318,4.318 3.165,0 4.534,-3.455 4.534,-3.455 0,0 0.402,3.938 -1.943,6.046 l 5.182,0 c -2.345,-2.107 -1.943,-6.046 -1.943,-6.046 0,0 1.369,3.455 4.534,3.455 2.639,0 4.318,-2.263 4.318,-4.318 0,-4.107 -4.703,-5.51 -7.341,-3.455 z"
         id="cl-9" /></g><text
       transform="scale(-1,-1)"
       sodipodi:linespacing="125%"
       id="text3788-8"
       y="-214.4666"
       x="-158.86395"
       style="font-style:normal;font-weight:normal;font-size:32px;line-height:125%;font-family:'Bitstream Vera Sans';letter-spacing:0px;word-spacing:0px;fill:#000000;fill-opacity:1;stroke:none"
       xml:space="preserve"><tspan
         style="font-style:normal;font-variant:normal;font-weight:normal;font-stretch:normal;font-family:Arial;-inkscape-font-specification:Arial"
         y="-214.4666"
         x="-158.86395"
         id="tspan3790-7"
         sodipodi:role="line">5</tspan></text>
<g
       id="layer1-1-4-1"
       transform="matrix(-1.4856506,0,0,-1.4856506,221.19916,232.46182)"><path
         style="fill:#000000"
         inkscape:connector-curvature="0"
         d="m 50.291466,22.698228 c 0,0 2.375,-1.9 2.375,-4.534 0,-1.542 -1.369,-4.102 -4.534,-4.102 -3.165,0 -4.534,2.561 -4.534,4.102 0,2.634 2.375,4.534 2.375,4.534 -2.638,-2.055 -7.341,-0.652 -7.341,3.455 0,2.056 1.68,4.318 4.318,4.318 3.165,0 4.534,-3.455 4.534,-3.455 0,0 0.402,3.938 -1.943,6.046 l 5.182,0 c -2.345,-2.107 -1.943,-6.046 -1.943,-6.046 0,0 1.369,3.455 4.534,3.455 2.639,0 4.318,-2.263 4.318,-4.318 0,-4.107 -4.703,-5.51 -7.341,-3.455 z"
         id="cl-9-7" /></g><g
       id="layer1-1-4-8"
       transform="matrix(2.5125778,0,0,2.5125778,-67.188386,-1.5311156)"><path
         style="fill:#000000"
         inkscape:connector-curvature="0"
         d="m 50.291466,22.698228 c 0,0 2.375,-1.9 2.375,-4.534 0,-1.542 -1.369,-4.102 -4.534,-4.102 -3.165,0 -4.534,2.561 -4.534,4.102 0,2.634 2.375,4.534 2.375,4.534 -2.638,-2.055 -7.341,-0.652 -7.341,3.455 0,2.056 1.68,4.318 4.318,4.318 3.165,0 4.534,-3.455 4.534,-3.455 0,0 0.402,3.938 -1.943,6.046 l 5.182,0 c -2.345,-2.107 -1.943,-6.046 -1.943,-6.046 0,0 1.369,3.455 4.534,3.455 2.639,0 4.318,-2.263 4.318,-4.318 0,-4.107 -4.703,-5.51 -7.341,-3.455 z"
         id="cl-9-8" /></g><g
       id="layer1-1-4-8-0"
       transform="matrix(-2.5125778,0,0,-2.5125778,174.72954,245.27515)"><path
         style="fill:#000000"
         inkscape:connector-curvature="0"
         d="m 50.291466,22.698228 c 0,0 2.375,-1.9 2.375,-4.534 0,-1.542 -1.369,-4.102 -4.534,-4.102 -3.165,0 -4.534,2.561 -4.534,4.102 0,2.634 2.375,4.534 2.375,4.534 -2.638,-2.055 -7.341,-0.652 -7.341,3.455 0,2.056 1.68,4.318 4.318,4.318 3.165,0 4.534,-3.455 4.534,-3.455 0,0 0.402,3.938 -1.943,6.046 l 5.182,0 c -2.345,-2.107 -1.943,-6.046 -1.943,-6.046 0,0 1.369,3.455 4.534,3.455 2.639,0 4.318,-2.263 4.318,-4.318 0,-4.107 -4.703,-5.51 -7.341,-3.455 z"
         id="cl-9-8-6" /></g><g
       id="layer1-1-4-8-2"
       transform="matrix(2.5125778,0,0,2.5125778,-9.1115857,-1.5311131)"><path
         style="fill:#000000"
         inkscape:connector-curvature="0"
         d="m 50.291466,22.698228 c 0,0 2.375,-1.9 2.375,-4.534 0,-1.542 -1.369,-4.102 -4.534,-4.102 -3.165,0 -4.534,2.561 -4.534,4.102 0,2.634 2.375,4.534 2.375,4.534 -2.638,-2.055 -7.341,-0.652 -7.341,3.455 0,2.056 1.68,4.318 4.318,4.318 3.165,0 4.534,-3.455 4.534,-3.455 0,0 0.402,3.938 -1.943,6.046 l 5.182,0 c -2.345,-2.107 -1.943,-6.046 -1.943,-6.046 0,0 1.369,3.455 4.534,3.455 2.639,0 4.318,-2.263 4.318,-4.318 0,-4.107 -4.703,-5.51 -7.341,-3.455 z"
         id="cl-9-8-66" /></g><g
       id="layer1-1-4-8-0-4"
       transform="matrix(-2.5125778,0,0,-2.5125778,232.80634,245.27515)"><path
         style="fill:#000000"
         inkscape:connector-curvature="0"
         d="m 50.291466,22.698228 c 0,0 2.375,-1.9 2.375,-4.534 0,-1.542 -1.369,-4.102 -4.534,-4.102 -3.165,0 -4.534,2.561 -4.534,4.102 0,2.634 2.375,4.534 2.375,4.534 -2.638,-2.055 -7.341,-0.652 -7.341,3.455 0,2.056 1.68,4.318 4.318,4.318 3.165,0 4.534,-3.455 4.534,-3.455 0,0 0.402,3.938 -1.943,6.046 l 5.182,0 c -2.345,-2.107 -1.943,-6.046 -1.943,-6.046 0,0 1.369,3.455 4.534,3.455 2.639,0 4.318,-2.263 4.318,-4.318 0,-4.107 -4.703,-5.51 -7.341,-3.455 z"
         id="cl-9-8-6-9" /></g><g
       id="layer1-1-4-8-2-6"
       transform="matrix(2.5125778,0,0,2.5125778,-38.388386,61.769684)"><path
         style="fill:#000000"
         inkscape:connector-curvature="0"
         d="m 50.291466,22.698228 c 0,0 2.375,-1.9 2.375,-4.534 0,-1.542 -1.369,-4.102 -4.534,-4.102 -3.165,0 -4.534,2.561 -4.534,4.102 0,2.634 2.375,4.534 2.375,4.534 -2.638,-2.055 -7.341,-0.652 -7.341,3.455 0,2.056 1.68,4.318 4.318,4.318 3.165,0 4.534,-3.455 4.534,-3.455 0,0 0.402,3.938 -1.943,6.046 l 5.182,0 c -2.345,-2.107 -1.943,-6.046 -1.943,-6.046 0,0 1.369,3.455 4.534,3.455 2.639,0 4.318,-2.263 4.318,-4.318 0,-4.107 -4.703,-5.51 -7.341,-3.455 z"
         id="cl-9-8-0" /></g></g></svg>