<?xml version="1.0" encoding="UTF-8" standalone="no"?>
<!-- http://code.google.com/p/vector-playing-cards/ -->

<svg
   xmlns:dc="http://purl.org/dc/elements/1.1/"
   xmlns:cc="http://creativecommons.org/ns#"
   xmlns:rdf="http://www.w3.org/1999/02/22-rdf-syntax-ns#"
   xmlns:svg="http://www.w3.org/2000/svg"
   xmlns="http://www.w3.org/2000/svg"
   xmlns:sodipodi="http://sodipodi.sourceforge.net/DTD/sodipodi-0.dtd"
   xmlns:inkscape="http://www.inkscape.org/namespaces/inkscape"
   width="242.66699pt"
   height="167.08691pt"
   viewBox="0 0 242.66699 167.08691"
   xml:space="preserve"
   id="svg2"
   version="1.1"
   inkscape:version="0.91 r13725"
   sodipodi:docname="as52.svg"><metadata
     id="metadata43"><rdf:RDF><cc:Work
         rdf:about=""><dc:format>image/svg+xml</dc:format><dc:type
           rdf:resource="http://purl.org/dc/dcmitype/StillImage" /><dc:title></dc:title></cc:Work></rdf:RDF></metadata><defs
     id="defs41" /><sodipodi:namedview
     pagecolor="#ffffff"
     bordercolor="#666666"
     borderopacity="1"
     objecttolerance="10"
     gridtolerance="10"
     guidetolerance="10"
     inkscape:pageopacity="0"
     inkscape:pageshadow="2"
     inkscape:window-width="1329"
     inkscape:window-height="744"
     id="namedview39"
     showgrid="false"
     inkscape:zoom="2.4336873"
     inkscape:cx="153.26009"
     inkscape:cy="97.136027"
     inkscape:window-x="37"
     inkscape:window-y="24"
     inkscape:window-maximized="1"
     inkscape:current-layer="svg2"
     fit-margin-top="0"
     fit-margin-left="0"
     fit-margin-right="0"
     fit-margin-bottom="0" /><g
     id="Layer_x0020_1"
     style="clip-rule:nonzero;fill-rule:nonzero;stroke:#000000;stroke-miterlimit:4"
     transform="matrix(0,-1,1,0,0,167.08691)"><path
       inkscape:connector-curvature="0"
       style="fill:#ffffff;stroke-width:0.5"
       d="m 166.83691,235.54785 c 0,3.77735 -3.08691,6.86914 -6.87109,6.86914 l -152.8549802,0 C 3.3359375,242.41699 0.25,239.3252 0.25,235.54785 L 0.25,7.1201172 C 0.25,3.3427734 3.3359375,0.25 7.1108398,0.25 l 152.8549802,0 c 3.78418,0 6.87109,3.0927734 6.87109,6.8701172 l 0,228.4277328 z"
       id="path5" /><g
       style="stroke:none"
       id="g7"><g
         id="g9" /></g><g
       id="g15" /><g
       id="g19" /><g
       style="stroke:none"
       id="g23"><g
         id="g25" /></g><g
       style="stroke:none"
       id="g31"><g
         id="g33" /></g></g><text
     xml:space="preserve"
     style="font-style:normal;font-weight:normal;font-size:32px;line-height:125%;font-family:'Bitstream Vera Sans';letter-spacing:0px;word-spacing:0px;fill:#000000;fill-opacity:1;stroke:none"
     x="-160.84125"
     y="28.013288"
     id="text3788"
     sodipodi:linespacing="125%"
     transform="matrix(0,-1,1,0,0,0)"><tspan
       sodipodi:role="line"
       id="tspan3790"
       x="-160.84125"
       y="28.013288"
       style="font-style:normal;font-variant:normal;font-weight:normal;font-stretch:normal;font-family:Arial;-inkscape-font-specification:Arial">A</tspan></text>
<g
     transform="matrix(0,-1.5085945,1.3793253,0,45.066155,150.15787)"
     id="layer1-7"><path
       id="sl"
       d="M 7.989,3.103 C 7.747,-0.954 0.242,-8.59 0,-10.5 c -0.242,1.909 -7.747,9.545 -7.989,13.603 -0.169,2.868 1.695,4.057 3.39,4.057 1.8351685,-0.021581 3.3508701,-2.8006944 3.873,-3.341 0.242,0.716 -1.603,6.682 -2.179,6.682 l 5.811,0 C 2.33,10.501 0.485,4.535 0.727,3.819 1.1841472,4.3152961 2.5241276,7.0768295 4.601,7.16 6.295,7.159 8.158,5.971 7.989,3.103 Z"
       inkscape:connector-curvature="0"
       style="fill:#000000"
       sodipodi:nodetypes="cccccccccc" /></g><text
     xml:space="preserve"
     style="font-style:normal;font-weight:normal;font-size:32px;line-height:125%;font-family:'Bitstream Vera Sans';letter-spacing:0px;word-spacing:0px;fill:#000000;fill-opacity:1;stroke:none"
     x="6.178813"
     y="-215.09668"
     id="text3788-2"
     sodipodi:linespacing="125%"
     transform="matrix(0,1,-1,0,0,0)"><tspan
       sodipodi:role="line"
       id="tspan3790-3"
       x="6.178813"
       y="-215.09668"
       style="font-style:normal;font-variant:normal;font-weight:normal;font-stretch:normal;font-family:Arial;-inkscape-font-specification:Arial">A</tspan></text>
<g
     transform="matrix(0,1.5085945,-1.3793253,0,198.04381,16.86219)"
     id="layer1-7-8"><path
       id="sl-0"
       d="M 7.989,3.103 C 7.747,-0.954 0.242,-8.59 0,-10.5 c -0.242,1.909 -7.747,9.545 -7.989,13.603 -0.169,2.868 1.695,4.057 3.39,4.057 1.8351685,-0.021581 3.3508701,-2.8006944 3.873,-3.341 0.242,0.716 -1.603,6.682 -2.179,6.682 l 5.811,0 C 2.33,10.501 0.485,4.535 0.727,3.819 1.1841472,4.3152961 2.5241276,7.0768295 4.601,7.16 6.295,7.159 8.158,5.971 7.989,3.103 Z"
       inkscape:connector-curvature="0"
       style="fill:#000000"
       sodipodi:nodetypes="cccccccccc" /></g><path
     style="fill:#000000"
     d="m 183.52067,87.58703 c -0.004,7.82566 -0.0721,14.29461 -0.15058,14.37544 -0.0784,0.0808 -0.6843,-0.55644 -1.34633,-1.41614 -2.41015,-3.12981 -6.42674,-5.82705 -13.31197,-8.9393 -4.73194,-2.13892 -6.63072,-2.82708 -9.761,-3.53758 -5.00918,-1.13695 -8.43722,-1.10008 -9.88244,0.10634 l -0.69283,0.57835 2.44783,2.33002 c 2.7213,2.59033 5.03846,5.96091 6.68327,9.72161 1.80174,4.11951 2.37813,6.78496 2.44563,11.30952 0.0533,3.56835 -0.0397,4.33655 -0.83361,6.88663 -2.00413,6.43786 -6.59489,11.6553 -12.9291,14.69403 -3.81584,1.83059 -5.92987,2.29836 -10.78678,2.3868 -3.92941,0.0716 -4.693,-0.0138 -8.11665,-0.90732 -5.34668,-1.39538 -11.96192,-4.25408 -16.57909,-7.16445 C 105.09529,124.4737 94.679645,116.3177 84.765963,107.69778 76.609237,100.60552 72.975275,97.74785 65.82091,92.79982 58.209156,87.53546 54.559916,85.44555 51.238578,84.44855 49.910873,84.04999 48.824324,83.6516 48.824033,83.56323 c -5.1e-5,-0.0884 1.318967,-0.60412 2.931685,-1.14609 6.414219,-2.15555 15.195072,-7.73336 24.905027,-15.82028 1.728837,-1.43985 6.652642,-5.63225 10.941774,-9.31643 14.047271,-12.06601 21.119471,-17.15987 30.071891,-21.65979 6.9324,-3.48456 12.27582,-4.85923 18.24911,-4.69482 7.63379,0.2101 13.02654,2.65496 18.35553,8.32167 2.19526,2.33439 4.2741,5.91473 5.08692,8.76107 0.2513,0.88005 0.57442,3.26204 0.71803,5.29332 0.43,6.08215 -0.76163,10.61641 -4.45056,16.93468 -1.73,2.96308 -4.52459,6.31222 -6.03933,7.23775 -1.22403,0.7479 -1.14597,1.32117 0.25637,1.88269 2.35808,0.9442 4.48215,1.0954 7.31498,0.52071 8.83394,-1.79212 20.14822,-7.52162 24.56872,-12.4415 l 1.78618,-1.98797 0.004,3.95518 c 0.003,2.17534 5.4e-4,10.35798 -0.004,18.18363 z m -4.6718,-12.9902 c -1.23292,1.54204 -5.99168,4.88293 -9.31212,6.53755 -3.45301,1.7207 -5.98888,2.2467 -8.4857,1.76011 -1.02382,-0.19951 -2.23947,-0.43651 -2.70144,-0.52666 -0.53869,-0.10511 -1.37907,0.12027 -2.34301,0.6284 l -1.50306,0.7923 1.69057,0.8877 1.69056,0.88769 1.55707,-0.58628 c 2.29702,-0.8649 5.63446,-0.65789 8.14775,0.50536 3.17619,1.47007 10.48996,6.39629 11.3801,7.6651 1.04223,1.48562 1.00818,0.82553 -0.10338,-2.00515 -0.801,-2.0397 -0.8974,-2.69102 -0.93135,-6.29192 -0.039,-4.13723 0.49761,-7.91189 1.35894,-9.55907 0.80083,-1.53151 0.5443,-1.93235 -0.4449,-0.69513 z m -2.06618,5.93274 c -0.41746,1.91124 -0.2968,6.72858 0.21323,8.51342 0.22611,0.79131 0.21657,0.7894 -0.87506,-0.1752 -1.50202,-1.32726 -3.09302,-2.16594 -7.09042,-3.73767 -3.07384,-1.2086 -3.31897,-1.3643 -2.59565,-1.6488 0.43933,-0.17279 2.284,-0.85956 4.0993,-1.52615 3.17843,-1.16714 4.50656,-1.89336 6.03257,-3.29856 0.80025,-0.73689 0.79535,-0.77934 0.21603,1.87296 z M 155.04396,48.72331 c -1.70724,-4.47648 -5.69817,-8.62798 -10.39198,-10.81009 -2.95407,-1.37333 -4.73655,-1.86115 -8.32018,-2.27699 -5.02409,-0.58299 -9.53245,0.26513 -15.92897,2.99659 -8.45541,3.61066 -15.40766,8.68514 -26.429895,19.29131 C 77.21685,74.0477 72.002992,78.04274 62.764948,81.83675 c -1.581152,0.64938 -3.487855,1.28819 -4.23712,1.4196 -0.749273,0.13141 -1.35697,0.33459 -1.350443,0.45153 0.0068,0.11693 1.223146,0.58183 2.703604,1.03311 8.905634,2.71461 17.488226,8.83467 32.356421,23.07266 10.36365,9.92437 12.2021,11.46865 18.49729,15.53748 8.22306,5.3149 14.84115,7.76452 21.71919,8.03914 10.84569,0.43303 20.11687,-5.25039 22.67504,-13.90026 1.56414,-5.28874 0.29509,-12.55033 -3.19307,-18.27108 -2.80241,-4.59608 -5.11461,-6.93615 -8.60168,-8.70531 -1.12106,-0.56878 -2.1015,-1.08606 -2.17875,-1.14951 -0.0773,-0.0634 0.34802,-0.63992 0.94504,-1.28101 1.04538,-1.12256 4.38524,-3.0894 6.62989,-3.90435 l 1.08009,-0.39214 -2.52152,-1.05494 c -1.67447,-0.70053 -3.16362,-1.63185 -4.43295,-2.77234 l -1.91145,-1.71742 2.28505,-1.14767 c 5.21457,-2.61901 10.37187,-9.92866 12.25781,-17.37338 0.80617,-3.18239 0.60153,-8.25763 -0.44343,-10.99755 z m -0.24843,8.51277 c -0.32153,2.70952 -0.84113,4.41122 -2.21023,7.23852 -3.59965,7.43362 -7.60089,11.35356 -12.36551,12.1143 -0.83762,0.13374 -1.52069,0.39383 -1.51794,0.57798 0.0162,1.09074 4.0724,4.59345 6.71667,5.80025 0.59973,0.2737 1.09229,0.62282 1.09457,0.77582 0.003,0.15299 -0.60572,0.59842 -1.35111,0.98983 -2.15809,1.13328 -4.93232,3.24555 -5.79501,4.4123 -0.87063,1.17746 -0.8732,1.17293 0.98561,1.73172 1.98831,0.59773 4.38642,1.82343 5.90344,3.01733 1.54808,1.21834 5.22242,6.37446 6.42831,9.02069 2.70981,5.94652 2.73784,12.94971 0.0707,17.65645 -2.2846,4.03161 -6.5175,7.05011 -11.99258,8.55195 -7.73907,2.12287 -15.02462,0.9418 -23.7448,-3.84928 -8.03149,-4.4127 -11.64759,-7.13767 -20.253605,-15.26244 C 82.497415,96.54267 73.711618,89.76804 65.424314,85.84584 c -3.443755,-1.62987 -3.267531,-1.99185 0.521037,-1.0702 6.472738,1.57461 22.150019,12.14112 41.957239,28.27926 5.3382,4.34935 13.18651,9.03494 17.54037,10.47194 5.98001,1.97371 10.79632,2.25907 15.7207,0.93141 7.00088,-1.88749 11.04211,-5.78793 11.90944,-11.4945 1.25805,-8.27726 -4.73911,-15.68095 -16.67244,-20.58275 l -2.88096,-1.18339 2.43049,-1.62307 c 2.6367,-1.76075 6.39232,-5.33942 6.38126,-6.08058 -0.008,-0.5689 -4.50737,-4.7567 -6.5912,-6.13542 -0.84337,-0.55801 -1.53831,-1.0939 -1.54433,-1.19087 -0.006,-0.097 0.52841,-0.37793 1.18758,-0.62435 0.65918,-0.24642 2.32946,-1.02486 3.71175,-1.72986 9.79291,-4.99458 14.59561,-11.61607 13.98037,-19.27479 -0.27357,-3.40551 -1.72218,-5.8682 -4.85175,-8.24814 -3.39086,-2.57863 -6.56242,-3.79835 -10.95545,-4.21327 -4.87863,-0.46079 -10.25929,0.76952 -16.58075,3.79127 -3.54309,1.69364 -10.76475,6.70471 -15.39554,10.68288 -9.053155,7.7773 -27.077158,20.64933 -33.86627,24.18594 -1.759967,0.91682 -5.620144,2.09953 -7.796767,2.38885 -1.759223,0.23383 -1.400744,-0.12428 1.067497,-1.0664 4.02264,-1.53543 10.037561,-5.32742 15.108766,-9.52502 3.178645,-2.63107 6.381122,-5.5342 14.143129,-12.82112 5.00208,-4.6959 8.440955,-7.67078 12.762215,-11.04027 7.38937,-5.76182 17.18334,-10.49752 24.06515,-11.63625 6.71829,-1.11166 15.12452,1.57324 19.56537,6.24906 1.7325,1.82419 3.61556,5.44696 4.22655,8.13137 0.52014,2.28527 0.55162,3.08953 0.22779,5.81851 z m -3.60325,2.84095 c -0.99214,2.72731 -2.462,5.00144 -4.40222,6.81103 -3.44903,3.2168 -9.25296,6.56451 -14.03382,8.09473 -2.50248,0.80095 -2.86633,1.08207 -1.81158,1.39959 2.16924,0.65305 10.41286,6.34979 10.42278,7.20267 0.008,0.60489 -3.40982,3.24164 -7.45552,5.75332 -2.09624,1.30141 -3.85197,2.40805 -3.90163,2.4592 -0.0497,0.0512 1.07756,0.38698 2.50493,0.74628 6.52369,1.64218 14.35548,6.54398 17.28582,10.81895 4.13634,6.03433 2.31375,14.97475 -3.60845,17.70075 -1.57726,0.72602 -4.88755,1.3467 -4.89396,0.91762 -0.003,-0.14714 0.14371,-0.26973 0.32422,-0.27243 0.71417,-0.0106 2.95812,-1.84164 3.78556,-3.08889 3.24669,-4.89392 2.71797,-9.61379 -1.68661,-15.05653 -3.44319,-4.25475 -11.21158,-8.19506 -13.18232,-6.68639 -0.51039,0.39073 -0.43156,0.42498 0.6925,0.30084 1.67005,-0.18444 2.78305,0.54283 3.8044,2.48591 0.4414,0.83977 1.05939,1.66586 1.37332,1.83575 0.52377,0.28347 0.49916,0.38599 -0.29908,1.24529 -0.4784,0.515 -0.86475,1.2762 -0.85856,1.69155 0.0111,0.74279 0.0219,0.74516 0.66598,0.14464 0.78158,-0.72882 3.33501,-0.85289 5.20391,-0.25286 1.5055,0.48336 4.15836,2.94402 4.99526,4.63335 1.40335,2.83279 0.47125,7.33947 -1.99234,9.63283 -3.53007,3.28615 -9.45557,1.99681 -11.93593,-2.59715 -1.19091,-2.20572 -0.74174,-5.33763 1.0033,-6.99581 0.8178,-0.77709 0.85966,-0.78283 1.97556,-0.27098 1.5607,0.71587 1.66135,1.22152 0.48453,2.43399 -0.92277,0.95071 -0.99137,1.16957 -0.82778,2.64113 0.30957,2.7848 2.84711,4.50782 5.49792,3.73316 1.51867,-0.4438 3.59813,-2.76888 3.86561,-4.32219 0.70177,-4.0752 -3.79655,-7.88427 -8.09385,-6.85368 -1.33882,0.32108 -1.80023,0.26764 -3.98546,-0.46161 -4.79387,-1.59981 -12.2034,-0.70499 -15.28671,1.84613 -0.60959,0.50436 -0.59996,0.51227 0.24119,0.19802 0.91041,-0.34011 1.84805,-0.17983 1.85547,0.3172 0.003,0.15781 -0.14738,0.28919 -0.33274,0.29196 -0.18536,0.003 -0.59584,0.60703 -0.91216,1.34281 -0.7208,1.67657 -0.33993,2.96841 1.08445,3.67827 0.93262,0.46476 0.97039,0.45954 0.73065,-0.10102 -0.56856,-1.32936 -0.57708,-1.79945 -0.0546,-3.00596 1.0132,-2.33939 3.86033,-3.74926 7.65589,-3.79113 2.2963,-0.0254 4.98852,0.47655 4.9953,0.93122 0.002,0.0934 -0.41882,0.71843 -0.93379,1.38896 -1.24063,1.61536 -1.5787,2.63277 -1.54033,4.63574 0.0641,3.34335 2.54207,6.59586 6.37564,8.36828 1.24087,0.57371 2.62177,1.04206 3.06863,1.04077 0.77409,-0.002 0.78238,0.0161 0.17553,0.38689 -0.87934,0.53735 -5.8997,0.50126 -8.67821,-0.0624 -6.9851,-1.417 -17.11235,-6.99282 -24.27754,-13.36664 l -1.92848,-1.71547 3.02426,-0.23155 c 2.37105,-0.18154 3.37137,-0.41585 4.63134,-1.08481 1.95941,-1.04034 4.05146,-3.30923 4.56688,-4.95295 0.56325,-1.79626 0.22523,-4.64035 -0.69487,-5.8468 -0.95817,-1.25636 -2.93532,-2.14696 -4.08503,-1.8401 -0.60359,0.1611 -0.81471,0.11137 -0.72529,-0.17083 0.21589,-0.68136 1.66782,-1.61577 3.01328,-1.93923 1.37166,-0.32976 4.42082,-0.0231 5.54631,0.55784 1.12495,0.58063 2.34991,2.45164 2.86497,4.37598 0.78545,2.93447 1.12436,3.53449 2.29924,4.07069 1.37303,0.62663 3.21951,0.32291 3.70033,-0.60865 0.32374,-0.62723 0.30829,-0.63172 -0.40334,-0.11728 -0.94506,0.68318 -1.10233,0.67565 -1.89183,-0.0906 -0.56183,-0.54532 -0.65965,-1.06711 -0.70598,-3.76569 -0.068,-3.95943 -0.67582,-5.43171 -2.71284,-6.57107 -2.22949,-1.24702 -3.84093,-1.53035 -6.1355,-1.07882 -3.62029,0.71241 -6.61227,2.62163 -7.74501,4.94216 -0.94352,1.93295 -0.96373,3.48559 -0.0598,4.60006 0.8188,1.00958 1.4555,1.11299 0.92129,0.14964 -0.54288,-0.97899 0.0631,-2.13912 1.42791,-2.7334 0.96172,-0.4188 1.26652,-0.42643 2.19416,-0.055 3.06876,1.22877 3.36001,4.82494 0.64796,8.00027 -1.73295,2.02896 -3.62097,2.9287 -6.19502,2.95225 -3.58619,0.0328 -6.55299,-1.76852 -8.107815,-4.92276 -0.61894,-1.2556 -0.69354,-4.04293 -0.15076,-5.63505 1.514455,-4.44276 7.151775,-8.51472 13.854795,-10.00765 2.48305,-0.55303 13.20383,-1.95104 15.17385,-1.97871 0.80133,-0.0113 1.81007,0.2404 2.4312,0.60649 1.34824,0.79469 2.22049,0.78129 2.71758,-0.0414 0.21546,-0.35673 0.71843,-0.65347 1.11772,-0.65943 0.43111,-0.006 0.72306,-0.20659 0.71879,-0.49279 -0.004,-0.28621 -0.30206,-0.47757 -0.73317,-0.47114 -0.39929,0.006 -0.91089,-0.27566 -1.13689,-0.6258 -0.4987,-0.77266 -1.38628,-0.7974 -2.73147,-0.0761 -0.82276,0.44115 -1.57466,0.51135 -4.07597,0.38062 -4.00396,-0.20928 -10.50475,-1.13855 -13.48255,-1.9273 -6.30185,-1.66922 -11.64897,-5.23056 -13.39036,-8.91836 -1.418505,-3.00405 -0.473105,-7.02019 2.20968,-9.38678 1.70642,-1.50531 3.01462,-1.91413 5.80739,-1.81483 1.96439,0.0698 2.61172,0.25098 4.20312,1.17624 2.53922,1.47634 3.86866,3.57979 3.70822,5.86722 -0.0931,1.32745 -0.29973,1.76644 -1.25678,2.67014 -0.9033,0.85303 -1.42102,1.08569 -2.44991,1.10104 -1.71982,0.0257 -3.03323,-1.14872 -2.84918,-2.54761 0.15274,-1.16095 -0.21946,-1.21121 -0.90962,-0.12282 -0.82224,1.29669 -0.41226,3.62901 0.96622,5.4967 1.22509,1.65986 3.83943,3.38055 5.95624,3.92024 1.86568,0.47566 5.28533,0.0985 7.02206,-0.77441 2.38962,-1.20112 2.86873,-2.1989 2.99678,-6.24115 0.0961,-3.03267 0.19557,-3.53735 0.82499,-4.18496 0.62541,-0.64346 0.80162,-0.68455 1.39598,-0.32558 0.56282,0.33994 0.65471,0.33765 0.53232,-0.0139 -0.21504,-0.61665 -1.6419,-1.01124 -2.66715,-0.73761 -1.52974,0.40829 -2.55478,1.7909 -2.95095,3.98027 -0.19741,1.09099 -0.65152,2.36723 -1.00915,2.8361 -1.91748,2.51396 -7.16668,3.19931 -9.70068,1.26654 -1.1552,-0.8811 -1.08203,-1.23995 0.21401,-1.04943 1.38082,0.20299 2.79088,-0.54375 3.92627,-2.07927 0.681,-0.92102 0.88943,-1.60512 0.95912,-3.14811 0.11222,-2.48405 -0.49871,-3.93357 -2.46037,-5.83755 -2.11288,-2.05076 -3.91791,-2.73539 -7.15842,-2.71508 -1.45698,0.009 -2.65154,-0.0873 -2.65458,-0.21423 -0.009,-0.39711 5.69152,-4.81971 9.84676,-7.63863 8.81084,-5.97733 15.86007,-8.52815 22.32535,-8.07864 2.90993,0.20231 3.63084,0.65021 1.58948,0.98754 -2.67574,0.44215 -6.57526,3.31039 -8.05574,5.92529 -0.6422,1.13427 -0.80849,1.87833 -0.8047,3.60055 0.005,2.33799 0.53273,3.72041 2.00195,5.24575 l 0.81193,0.84294 -0.7491,0.44164 c -0.4784,0.28206 -1.7942,0.45292 -3.64107,0.47281 -3.36957,0.0363 -5.35532,-0.64509 -7.33468,-2.51679 -1.56957,-1.48419 -1.87573,-2.72347 -0.98124,-3.97188 l 0.67193,-0.93776 -0.92375,0.0138 c -2.06259,0.0308 -2.82441,2.87254 -1.30437,4.86562 l 0.77195,1.01217 -0.97378,-0.12811 c -1.26292,-0.16615 -1.05983,0.38769 0.53376,1.45563 1.85283,1.24167 3.83328,1.76852 7.15513,1.90347 2.52676,0.10265 3.46982,-0.003 5.4544,-0.60809 1.31969,-0.40273 2.79712,-0.73345 3.28319,-0.73492 0.48606,-0.002 1.71557,0.0138 2.73224,0.0339 3.06491,0.0608 5.36567,-1.29464 6.4863,-3.82114 1.64921,-3.71813 -0.68101,-7.54228 -4.56056,-7.48441 -1.81994,0.0271 -2.97429,0.75455 -3.78776,2.38685 -0.602,1.20798 -0.37706,3.23173 0.45883,4.12815 0.56023,0.60079 0.54636,0.65659 -0.40789,1.63973 -0.97334,1.00282 -1.00054,1.00975 -1.84887,0.47182 -1.78817,-1.13391 -2.75953,-5.14469 -1.73586,-7.16742 0.24339,-0.48095 0.9887,-1.41701 1.65622,-2.08014 3.23009,-3.20886 7.60624,-3.45654 10.929,-0.61856 2.67527,2.28495 3.28223,4.65306 2.12138,8.27675 -0.83698,2.61271 -2.12384,4.23508 -4.16751,5.25409 -2.881,1.43651 -3.9142,1.44329 -6.73482,0.0442 -0.69156,-0.34303 -0.0848,1.40108 0.77917,2.23964 0.76502,0.74252 0.90212,1.03682 0.58102,1.2472 -0.23115,0.15145 -0.523,0.2791 -0.64854,0.28368 -0.12556,0.004 -0.68088,0.72271 -1.23405,1.59582 -1.41489,2.23326 -3.43505,3.14921 -5.16857,2.34345 -0.68286,-0.31739 -0.68542,-0.31188 -0.0757,0.16182 1.38793,1.07836 3.64661,0.67881 7.37046,-1.3038 6.37116,-3.39209 10.27127,-8.67847 10.51031,-14.24614 0.0968,-2.25475 0.0134,-2.71133 -0.78172,-4.27682 -0.91479,-1.8012 -2.75328,-3.58824 -4.75022,-4.61729 l -1.13355,-0.58412 1.12442,-0.0278 c 2.41759,-0.0599 6.83845,2.59763 8.50623,5.11328 0.97479,1.47035 1.06714,1.83153 1.19309,4.66615 0.11516,2.59098 0.0228,3.38498 -0.58906,5.06701 z m -8.52044,-3.40792 c -0.16507,0.92034 -1.56865,2.35755 -2.85595,2.92439 -1.02221,0.45011 -3.61594,0.66472 -3.62139,0.29965 -0.0104,-0.69434 1.21334,-2.061 2.32753,-2.59948 1.16716,-0.56408 1.31818,-0.76419 1.30381,-1.72754 -0.0195,-1.31051 -0.84033,-1.98893 -1.70832,-1.41201 -0.30629,0.20357 -0.54084,0.67635 -0.52121,1.05061 0.0394,0.75139 -0.47544,0.89968 -1.08144,0.31148 -0.42014,-0.40779 -0.53837,-1.79667 -0.22555,-2.6497 0.25866,-0.70532 1.78277,-1.4872 2.93244,-1.50435 1.10701,-0.0165 2.46831,0.94016 3.15188,2.21507 0.47759,0.89072 0.5529,1.6717 0.2982,3.09188 z m -0.88147,58.10309 c -1.34938,1.50633 -2.85604,1.82408 -4.35317,0.91808 -1.19414,-0.72264 -1.6473,-1.94168 -1.14681,-3.08504 0.41971,-0.95882 1.33351,-1.09328 1.1049,-0.16258 -0.11321,0.46089 0.0757,0.73756 0.68652,1.0049 0.70957,0.3106 0.94315,0.27528 1.47799,-0.22345 0.34938,-0.32579 0.63034,-0.92092 0.62434,-1.3225 -0.0123,-0.82256 -1.40877,-2.04148 -2.32326,-2.02784 -0.32961,0.005 -0.60226,-0.19024 -0.60589,-0.43368 -0.003,-0.24344 -0.22617,-0.61938 -0.49453,-0.83543 -0.81156,-0.65334 -0.56396,-0.95573 0.79921,-0.97606 2.93097,-0.0437 4.86251,1.54844 5.12465,4.22423 0.15789,1.61164 0.0957,1.81458 -0.89395,2.91937 z M 118.15725,84.14723 c -0.75097,0.0171 -1.72379,0.24379 -2.16181,0.50293 -1.11932,0.66222 -1.64414,0.61733 -2.84827,-0.24362 l -1.05244,-0.75249 1.17274,-0.7492 c 1.05579,-0.67449 1.27309,-0.70848 2.17887,-0.34079 0.55338,0.22462 1.6939,0.46265 2.53449,0.52895 2.02619,0.15983 2.16811,1.00791 0.17642,1.05422 z m -7.92704,1.68775 c -3.27162,0.69449 -6.85959,2.79649 -9.63938,5.64717 -2.934385,3.00924 -4.207475,5.47192 -3.858415,7.46379 0.18609,1.0619 0.13302,1.25344 -0.34652,1.25095 -0.8927,-0.005 -2.00707,-0.72223 -2.69836,-1.73762 -1.253992,-1.8419 -0.761499,-3.20158 2.2234,-6.1385 4.357145,-4.28709 10.301285,-7.36398 14.342685,-7.42426 2.20778,-0.0329 2.19529,0.46749 -0.0233,0.93847 z m 0.19143,-3.19411 c -3.89737,0.0505 -9.73424,-2.66878 -13.882315,-6.46653 -4.088495,-3.74322 -4.729088,-6.25974 -2.13005,-8.36765 0.46367,-0.37605 1.15391,-0.68836 1.5339,-0.69403 0.62817,-0.009 0.69236,0.1574 0.70718,1.83739 0.0228,2.58114 1.08454,4.51103 4.094225,7.44159 2.90772,2.83127 6.31108,4.77801 9.31616,5.32886 1.122,0.20567 2.04176,0.49201 2.04392,0.63631 0.003,0.1443 -0.75521,0.27212 -1.68302,0.28406 z m -5.16727,1.36607 c -2.81446,0.042 -6.042995,0.65415 -13.975317,2.64989 -7.651577,1.9251 -11.79488,1.67224 -16.891199,-1.03086 -1.131316,-0.60006 -2.68418,-1.2571 -3.450809,-1.46007 l -1.393859,-0.36908 1.27932,-0.41566 c 0.703627,-0.22861 2.374097,-0.94547 3.712165,-1.593 5.211401,-2.52199 8.795699,-2.86102 14.731931,-1.39345 5.178293,1.2802 10.366973,2.32193 14.024768,2.81575 3.50509,0.4732 4.2189,0.76283 1.963,0.79648 z m -6.299725,3.78779 c -0.72958,0.49862 -2.33782,1.75504 -3.57388,2.79205 -2.748393,2.30579 -4.514215,3.25386 -6.572629,3.52884 -2.733909,0.36522 -4.443869,-0.7871 -4.04787,-2.7278 0.382536,-1.87468 2.687297,-2.75261 9.674059,-3.68506 2.87757,-0.38404 5.36938,-0.78605 5.53736,-0.89335 0.167955,-0.10731 0.306315,-0.1335 0.307435,-0.0582 10e-4,0.0753 -0.594885,0.54489 -1.324475,1.0435 z m 0.42633,-7.3915 c -0.53129,-0.0683 -2.41429,-0.26359 -4.18442,-0.43386 -5.709542,-0.54924 -8.859439,-1.58495 -10.146199,-3.33616 -0.862332,-1.17358 -0.868534,-1.69702 -0.02936,-2.47847 0.519524,-0.48381 1.142836,-0.6265 2.802514,-0.64157 2.713138,-0.0246 3.710437,0.44407 7.55,3.54809 1.66653,1.34727 3.46733,2.67834 4.00177,2.95792 l 0.97172,0.50832 z m -7.68165,14.89356 c -0.576776,0.91836 -0.584216,1.5434 -0.03473,2.91394 0.195104,0.48662 0.05907,0.46853 -1.045193,-0.13903 -0.698226,-0.38415 -1.843187,-1.18538 -2.544358,-1.7805 l -1.274866,-1.08202 1.459019,-0.0218 c 0.802471,-0.012 2.052435,-0.24114 2.777689,-0.50925 0.725262,-0.26812 1.30854,-0.4576 1.296159,-0.42106 -0.01239,0.0366 -0.297566,0.50439 -0.633753,1.03968 z M 90.88143,72.8201 C 90.189341,72.6967 88.90877,72.51473 88.035728,72.41572 L 86.44837,72.2357 87.698933,71.38249 c 0.687813,-0.46926 1.716863,-1.10297 2.286773,-1.40824 l 1.036209,-0.55502 0.01583,1.06134 c 0.0087,0.58374 0.26023,1.39942 0.558938,1.81263 l 0.543089,0.75127 z m -7.917913,17.25947 c -0.341337,0.42239 -0.616537,1.04113 -0.611557,1.375 0.005,0.33386 -0.05298,0.60794 -0.128881,0.60908 -0.245521,0.004 -4.029027,-2.49439 -4.212178,-2.78108 -0.09872,-0.15453 0.384022,-0.18372 1.088135,-0.0658 0.69607,0.11658 1.993965,0.131 2.884217,0.032 0.890252,-0.099 1.614648,-0.12533 1.60976,-0.0586 -0.0049,0.0668 -0.288158,0.46695 -0.629496,0.88933 z m -2.122023,-11.9242 c -1.397933,-0.007 -2.542834,-0.044 -2.544216,-0.0816 -0.0053,-0.12892 3.779135,-2.71974 3.97648,-2.72269 0.108497,-0.002 0.107176,0.14779 -0.0026,0.332 -0.110086,0.18422 0.09515,0.81883 0.456087,1.41024 l 0.656267,1.0753 z"
     id="path2987"
     inkscape:connector-curvature="0"
     sodipodi:nodetypes="scsssscssssssssssscssssssssssssscssssssscccsssssssssssssssssssssscssssssscsscsscssssssssssssssssssssssssscssscssssssssssssssssscssscscssssssssssssssssssssssssssssssssssssssssssscsssssssssssssssssssssssssscscsssssssssssscsssssssssssssssssssssssssscsssscsscsssscssssssssssssssscssssssscsssccsssssscssssssssssssssssssssscssssssscssssssssssssssssscsssssssssscssssssssscssssscsscssscsscsscsssscssssscscscs" /></svg>