<?xml version="1.0" encoding="UTF-8" standalone="no"?>
<!-- http://code.google.com/p/vector-playing-cards/ -->

<svg
   xmlns:dc="http://purl.org/dc/elements/1.1/"
   xmlns:cc="http://creativecommons.org/ns#"
   xmlns:rdf="http://www.w3.org/1999/02/22-rdf-syntax-ns#"
   xmlns:svg="http://www.w3.org/2000/svg"
   xmlns="http://www.w3.org/2000/svg"
   xmlns:xlink="http://www.w3.org/1999/xlink"
   xmlns:sodipodi="http://sodipodi.sourceforge.net/DTD/sodipodi-0.dtd"
   xmlns:inkscape="http://www.inkscape.org/namespaces/inkscape"
   width="242.66699pt"
   height="167.08691pt"
   viewBox="0 0 242.66699 167.08691"
   xml:space="preserve"
   id="svg2"
   version="1.1"
   inkscape:version="0.91 r13725"
   sodipodi:docname="tc09.svg"
   inkscape:export-filename="/home/byron/art/cards/final/PNGs/10_of_clubs.png"
   inkscape:export-xdpi="215.44792"
   inkscape:export-ydpi="215.44792"><metadata
     id="metadata43"><rdf:RDF><cc:Work
         rdf:about=""><dc:format>image/svg+xml</dc:format><dc:type
           rdf:resource="http://purl.org/dc/dcmitype/StillImage" /><dc:title></dc:title></cc:Work></rdf:RDF></metadata><defs
     id="defs41"><radialGradient
       inkscape:collect="always"
       xlink:href="#linearGradient2984"
       id="radialGradient3760"
       cx="48.231091"
       cy="18.137882"
       fx="48.231091"
       fy="18.137882"
       r="9.5"
       gradientUnits="userSpaceOnUse"
       gradientTransform="matrix(-1.5605256,0.01828294,-0.02684055,-2.2909528,123.98377,58.809108)" /><linearGradient
       id="linearGradient2984"><stop
         style="stop-color:#000000;stop-opacity:1;"
         offset="0"
         id="stop2986" /><stop
         style="stop-color:#000000;stop-opacity:0.65648854;"
         offset="1"
         id="stop2988" /></linearGradient><radialGradient
       inkscape:collect="always"
       xlink:href="#linearGradient3784"
       id="radialGradient3792"
       cx="171.48665"
       cy="511.22299"
       fx="171.48665"
       fy="511.22299"
       r="81.902771"
       gradientTransform="matrix(1.1529891,-0.67391547,0.39482025,0.67549043,-233.63262,270.40076)"
       gradientUnits="userSpaceOnUse" /><linearGradient
       id="linearGradient3784"><stop
         style="stop-color:#ffffff;stop-opacity:0.53435117;"
         offset="0"
         id="stop3786" /><stop
         style="stop-color:#000000;stop-opacity:0;"
         offset="1"
         id="stop3788" /></linearGradient><radialGradient
       r="81.902771"
       fy="511.22299"
       fx="171.48665"
       cy="511.22299"
       cx="171.48665"
       gradientTransform="matrix(1.1529891,-0.67391547,0.39482025,0.67549043,-233.63262,270.40076)"
       gradientUnits="userSpaceOnUse"
       id="radialGradient3855"
       xlink:href="#linearGradient3784-4"
       inkscape:collect="always" /><linearGradient
       id="linearGradient3784-4"><stop
         style="stop-color:#ffffff;stop-opacity:0.51908398;"
         offset="0"
         id="stop3786-8" /><stop
         style="stop-color:#000000;stop-opacity:0;"
         offset="1"
         id="stop3788-6" /></linearGradient><radialGradient
       r="81.902771"
       fy="461.84113"
       fx="181.69392"
       cy="461.84113"
       cx="181.69392"
       gradientTransform="matrix(1.1529891,-0.67391547,0.39482025,0.67549043,-233.63262,270.40076)"
       gradientUnits="userSpaceOnUse"
       id="radialGradient3916"
       xlink:href="#linearGradient3784-3"
       inkscape:collect="always" /><linearGradient
       id="linearGradient3784-3"><stop
         style="stop-color:#ffffff;stop-opacity:0.70229006;"
         offset="0"
         id="stop3786-86" /><stop
         style="stop-color:#000000;stop-opacity:0;"
         offset="1"
         id="stop3788-2" /></linearGradient></defs><sodipodi:namedview
     pagecolor="#ffffff"
     bordercolor="#666666"
     borderopacity="1"
     objecttolerance="10"
     gridtolerance="10"
     guidetolerance="10"
     inkscape:pageopacity="0"
     inkscape:pageshadow="2"
     inkscape:window-width="1329"
     inkscape:window-height="744"
     id="namedview39"
     showgrid="false"
     inkscape:zoom="2.4336873"
     inkscape:cx="164.86731"
     inkscape:cy="100.92931"
     inkscape:window-x="37"
     inkscape:window-y="24"
     inkscape:window-maximized="1"
     inkscape:current-layer="svg2"
     fit-margin-top="0"
     fit-margin-left="0"
     fit-margin-right="0"
     fit-margin-bottom="0" /><g
     id="Layer_x0020_1"
     style="clip-rule:nonzero;fill-rule:nonzero;stroke:#000000;stroke-miterlimit:4"
     transform="matrix(0,-1,1,0,0,167.08691)"><path
       inkscape:connector-curvature="0"
       style="fill:#ffffff;stroke-width:0.5"
       d="m 166.83691,235.54785 c 0,3.77735 -3.08691,6.86914 -6.87109,6.86914 l -152.8549802,0 C 3.3359375,242.41699 0.25,239.3252 0.25,235.54785 L 0.25,7.1201172 C 0.25,3.3427734 3.3359375,0.25 7.1108398,0.25 l 152.8549802,0 c 3.78418,0 6.87109,3.0927734 6.87109,6.8701172 l 0,228.4277328 z"
       id="path5" /><g
       style="stroke:none"
       id="g7"><g
         id="g9" /></g><g
       id="g15" /><g
       id="g19" /><g
       style="stroke:none"
       id="g23"><g
         id="g25" /></g><g
       style="stroke:none"
       id="g31"><g
         id="g33" /></g></g><g
     transform="matrix(0,-1.4856506,1.4856506,0,10.018072,221.11157)"
     id="layer1-1-4"><path
       id="cl-9"
       d="m 50.291466,22.698228 c 0,0 2.375,-1.9 2.375,-4.534 0,-1.542 -1.369,-4.102 -4.534,-4.102 -3.165,0 -4.534,2.561 -4.534,4.102 0,2.634 2.375,4.534 2.375,4.534 -2.638,-2.055 -7.341,-0.652 -7.341,3.455 0,2.056 1.68,4.318 4.318,4.318 3.165,0 4.534,-3.455 4.534,-3.455 0,0 0.402,3.938 -1.943,6.046 l 5.182,0 c -2.345,-2.107 -1.943,-6.046 -1.943,-6.046 0,0 1.369,3.455 4.534,3.455 2.639,0 4.318,-2.263 4.318,-4.318 0,-4.107 -4.703,-5.51 -7.341,-3.455 z"
       inkscape:connector-curvature="0"
       style="fill:#000000" /></g><g
     transform="matrix(0,1.4856506,-1.4856506,0,232.46182,-54.11225)"
     id="layer1-1-4-1"><path
       id="cl-9-7"
       d="m 50.291466,22.698228 c 0,0 2.375,-1.9 2.375,-4.534 0,-1.542 -1.369,-4.102 -4.534,-4.102 -3.165,0 -4.534,2.561 -4.534,4.102 0,2.634 2.375,4.534 2.375,4.534 -2.638,-2.055 -7.341,-0.652 -7.341,3.455 0,2.056 1.68,4.318 4.318,4.318 3.165,0 4.534,-3.455 4.534,-3.455 0,0 0.402,3.938 -1.943,6.046 l 5.182,0 c -2.345,-2.107 -1.943,-6.046 -1.943,-6.046 0,0 1.369,3.455 4.534,3.455 2.639,0 4.318,-2.263 4.318,-4.318 0,-4.107 -4.703,-5.51 -7.341,-3.455 z"
       inkscape:connector-curvature="0"
       style="fill:#000000" /></g><path
     style="fill:#000000"
     inkscape:connector-curvature="0"
     d="m 25.099947,109.51408 c 0,0 -4.773898,-5.96738 -11.392027,-5.96738 -3.874395,0 -10.306595,3.43972 -10.306595,11.39203 0,7.95231 6.434712,11.39203 10.306595,11.39203 6.618129,0 11.392027,-5.96737 11.392027,-5.96737 -5.163348,6.62818 -1.638201,18.44483 8.680956,18.44483 5.16586,0 10.849311,-4.22113 10.849311,-10.84931 0,-7.95231 -8.680956,-11.39203 -8.680956,-11.39203 0,0 9.894531,-1.01005 15.191045,4.88194 l 0,-13.02018 c -5.294001,5.892 -15.191045,4.88194 -15.191045,4.88194 0,0 8.680956,-3.43972 8.680956,-11.39203 0,-6.63069 -5.685963,-10.84931 -10.849311,-10.84931 -10.319157,0 -13.844304,11.81666 -8.680956,18.44484 z"
     id="cl-9-8" /><path
     style="fill:#000000"
     inkscape:connector-curvature="0"
     d="m 93.200747,109.97648 c 0,0 -4.773898,-5.96738 -11.392027,-5.96738 -3.874396,0 -10.306594,3.43972 -10.306594,11.39203 0,7.95231 6.434711,11.39203 10.306594,11.39203 6.618129,0 11.392027,-5.96737 11.392027,-5.96737 -5.163348,6.62818 -1.638201,18.44483 8.680953,18.44483 5.16587,0 10.84932,-4.22113 10.84932,-10.84931 0,-7.95231 -8.68096,-11.39203 -8.68096,-11.39203 0,0 9.89453,-1.01005 15.19104,4.88194 l 0,-13.02018 c -5.294,5.892 -15.19104,4.88194 -15.19104,4.88194 0,0 8.68096,-3.43972 8.68096,-11.39203 0,-6.63069 -5.68597,-10.84931 -10.84932,-10.84931 -10.319154,0 -13.844301,11.81666 -8.680953,18.44484 z"
     id="cl-9-8-0" /><path
     style="fill:#000000"
     inkscape:connector-curvature="0"
     d="m 24.926219,45.52902 c 0,0 -4.773898,-5.96737 -11.392027,-5.96737 -3.874395,0 -10.306594,3.43971 -10.306594,11.39203 0,7.95231 6.434711,11.39202 10.306594,11.39202 6.618129,0 11.392027,-5.96737 11.392027,-5.96737 -5.163348,6.62818 -1.638201,18.44483 8.680956,18.44483 5.16586,0 10.849311,-4.22113 10.849311,-10.8493 0,-7.95231 -8.680956,-11.39203 -8.680956,-11.39203 0,0 9.894531,-1.01006 15.191045,4.88193 l 0,-13.02017 c -5.294001,5.89199 -15.191045,4.88193 -15.191045,4.88193 0,0 8.680956,-3.43971 8.680956,-11.39202 0,-6.63069 -5.685963,-10.84931 -10.849311,-10.84931 -10.319157,0 -13.844304,11.81665 -8.680956,18.44483 z"
     id="cl-9-8-9" /><path
     style="fill:#000000"
     inkscape:connector-curvature="0"
     d="m 93.027019,45.52902 c 0,0 -4.773898,-5.96737 -11.392028,-5.96737 -3.874395,0 -10.306593,3.43971 -10.306593,11.39203 0,7.95231 6.434711,11.39202 10.306593,11.39202 6.61813,0 11.392028,-5.96737 11.392028,-5.96737 -5.163348,6.62818 -1.638201,18.44483 8.680951,18.44483 5.16587,0 10.84932,-4.22113 10.84932,-10.8493 0,-7.95231 -8.68096,-11.39203 -8.68096,-11.39203 0,0 9.89453,-1.01006 15.19104,4.88193 l 0,-13.02017 c -5.294,5.89199 -15.19104,4.88193 -15.19104,4.88193 0,0 8.68096,-3.43971 8.68096,-11.39202 0,-6.63069 -5.68597,-10.84931 -10.84932,-10.84931 -10.319152,0 -13.844299,11.81665 -8.680951,18.44483 z"
     id="cl-9-8-0-4" /><path
     style="fill:#000000"
     inkscape:connector-curvature="0"
     d="m 59.281103,77.51011 c 0,0 -4.773897,-5.96737 -11.392027,-5.96737 -3.874395,0 -10.306594,3.43972 -10.306594,11.39203 0,7.95231 6.434712,11.39203 10.306594,11.39203 6.61813,0 11.392027,-5.96738 11.392027,-5.96738 -5.163347,6.62818 -1.638201,18.44484 8.680957,18.44484 5.165859,0 10.84931,-4.22113 10.84931,-10.84932 0,-7.9523 -8.680956,-11.39202 -8.680956,-11.39202 0,0 9.894531,-1.01006 15.191045,4.88194 l 0,-13.02018 c -5.294001,5.89199 -15.191045,4.88194 -15.191045,4.88194 0,0 8.680956,-3.43972 8.680956,-11.39203 0,-6.63069 -5.685963,-10.84931 -10.84931,-10.84931 -10.319158,0 -13.844304,11.81665 -8.680957,18.44483 z"
     id="cl-9-8-8" /><path
     style="fill:#000000"
     inkscape:connector-curvature="0"
     d="m 217.80216,57.02433 c 0,0 4.77391,5.96737 11.39203,5.96737 3.8744,0 10.3066,-3.43971 10.3066,-11.39202 0,-7.95232 -6.43471,-11.39203 -10.3066,-11.39203 -6.61812,0 -11.39203,5.96737 -11.39203,5.96737 5.16335,-6.62818 1.6382,-18.44483 -8.68095,-18.44483 -5.16586,0 -10.84931,4.22112 -10.84931,10.84931 0,7.95231 8.68095,11.39202 8.68095,11.39202 0,0 -9.89453,1.01006 -15.19104,-4.88193 l 0,13.02017 c 5.294,-5.89199 15.19104,-4.88193 15.19104,-4.88193 0,0 -8.68095,3.43972 -8.68095,11.39203 0,6.63069 5.68596,10.84931 10.84931,10.84931 10.31915,0 13.8443,-11.81666 8.68095,-18.44484 z"
     id="cl-9-8-4" /><path
     style="fill:#000000"
     inkscape:connector-curvature="0"
     d="m 149.70136,56.37859 c 0,0 4.77391,5.96737 11.39203,5.96737 3.8744,0 10.3066,-3.43971 10.3066,-11.39202 0,-7.95232 -6.43471,-11.39203 -10.3066,-11.39203 -6.61812,0 -11.39203,5.96737 -11.39203,5.96737 5.16335,-6.62818 1.6382,-18.44483 -8.68095,-18.44483 -5.16586,0 -10.84931,4.22112 -10.84931,10.84931 0,7.95231 8.68095,11.39202 8.68095,11.39202 0,0 -9.89453,1.01006 -15.19104,-4.88193 l 0,13.02017 c 5.294,-5.89199 15.19104,-4.88193 15.19104,-4.88193 0,0 -8.68095,3.43972 -8.68095,11.39203 0,6.63069 5.68596,10.8493 10.84931,10.8493 10.31915,0 13.8443,-11.81665 8.68095,-18.44483 z"
     id="cl-9-8-0-2" /><path
     style="fill:#000000"
     inkscape:connector-curvature="0"
     d="m 217.97556,121.00928 c 0,0 4.77391,5.96737 11.39203,5.96737 3.8744,0 10.3066,-3.43972 10.3066,-11.39203 0,-7.95231 -6.43471,-11.39203 -10.3066,-11.39203 -6.61812,0 -11.39203,5.96738 -11.39203,5.96738 5.16335,-6.62818 1.6382,-18.44484 -8.68095,-18.44484 -5.16586,0 -10.84931,4.22113 -10.84931,10.84931 0,7.95231 8.68095,11.39203 8.68095,11.39203 0,0 -9.89453,1.01006 -15.19104,-4.88194 l 0,13.02018 c 5.294,-5.89199 15.19104,-4.88194 15.19104,-4.88194 0,0 -8.68095,3.43972 -8.68095,11.39203 0,6.63069 5.68596,10.84931 10.84931,10.84931 10.31915,0 13.8443,-11.81665 8.68095,-18.44483 z"
     id="cl-9-8-9-6" /><path
     style="fill:#000000"
     inkscape:connector-curvature="0"
     d="m 149.87509,120.82579 c 0,0 4.77391,5.96737 11.39203,5.96737 3.8744,0 10.3066,-3.43972 10.3066,-11.39202 0,-7.95231 -6.43471,-11.39203 -10.3066,-11.39203 -6.61812,0 -11.39203,5.96737 -11.39203,5.96737 5.16335,-6.62818 1.6382,-18.44483 -8.68095,-18.44483 -5.16586,0 -10.84931,4.22113 -10.84931,10.84931 0,7.95231 8.68095,11.39203 8.68095,11.39203 0,0 -9.89453,1.01005 -15.19104,-4.88194 l 0,13.02017 c 5.294,-5.89199 15.19104,-4.88193 15.19104,-4.88193 0,0 -8.68095,3.43971 -8.68095,11.39202 0,6.6307 5.68596,10.84931 10.84931,10.84931 10.31915,0 13.8443,-11.81665 8.68095,-18.44483 z"
     id="cl-9-8-0-4-9" /><text
     xml:space="preserve"
     style="font-style:normal;font-weight:normal;font-size:32px;line-height:125%;font-family:'Bitstream Vera Sans';letter-spacing:0px;word-spacing:0px;fill:#000000;fill-opacity:1;stroke:none"
     x="-168.24907"
     y="27.170401"
     id="text3788"
     sodipodi:linespacing="125%"
     transform="matrix(0,-1,1,0,0,0)"><tspan
       sodipodi:role="line"
       id="tspan3790"
       x="-168.24907"
       y="27.170401"
       style="font-style:normal;font-variant:normal;font-weight:normal;font-stretch:normal;font-family:Arial;-inkscape-font-specification:Arial">1</tspan></text>
<text
     xml:space="preserve"
     style="font-style:normal;font-weight:normal;font-size:32px;line-height:125%;font-family:'Bitstream Vera Sans';letter-spacing:0px;word-spacing:0px;fill:#000000;fill-opacity:1;stroke:none"
     x="-156.08646"
     y="27.499109"
     id="text3038"
     sodipodi:linespacing="125%"
     transform="matrix(0,-1,1,0,0,0)"><tspan
       sodipodi:role="line"
       id="tspan3040"
       x="-156.08646"
       y="27.499109">0</tspan></text>
<path
     style="fill:#000000"
     inkscape:connector-curvature="0"
     d="m 183.9376,89.01711 c 0,0 4.77389,5.96738 11.39202,5.96738 3.8744,0 10.3066,-3.43972 10.3066,-11.39203 0,-7.95231 -6.43471,-11.39203 -10.3066,-11.39203 -6.61813,0 -11.39202,5.96737 -11.39202,5.96737 5.16334,-6.62818 1.6382,-18.44483 -8.68096,-18.44483 -5.16586,0 -10.84931,4.22113 -10.84931,10.84931 0,7.95231 8.68096,11.39203 8.68096,11.39203 0,0 -9.89454,1.01005 -15.19105,-4.88194 l 0,13.02018 c 5.294,-5.892 15.19105,-4.88194 15.19105,-4.88194 0,0 -8.68096,3.43972 -8.68096,11.39203 0,6.63069 5.68596,10.84931 10.84931,10.84931 10.31916,0 13.8443,-11.81666 8.68096,-18.44484 z"
     id="cl-9-8-8-8" /><text
     xml:space="preserve"
     style="font-style:normal;font-weight:normal;font-size:32px;line-height:125%;font-family:'Bitstream Vera Sans';letter-spacing:0px;word-spacing:0px;fill:#000000;fill-opacity:1;stroke:none"
     x="-1.7220964"
     y="-216.22618"
     id="text3788-0"
     sodipodi:linespacing="125%"
     transform="matrix(0,1,-1,0,0,0)"><tspan
       sodipodi:role="line"
       id="tspan3790-6"
       x="-1.7220964"
       y="-216.22618"
       style="font-style:normal;font-variant:normal;font-weight:normal;font-stretch:normal;font-family:Arial;-inkscape-font-specification:Arial">1</tspan></text>
<text
     xml:space="preserve"
     style="font-style:normal;font-weight:normal;font-size:32px;line-height:125%;font-family:'Bitstream Vera Sans';letter-spacing:0px;word-spacing:0px;fill:#000000;fill-opacity:1;stroke:none"
     x="10.440516"
     y="-215.89748"
     id="text3038-8"
     sodipodi:linespacing="125%"
     transform="matrix(0,1,-1,0,0,0)"><tspan
       sodipodi:role="line"
       id="tspan3040-9"
       x="10.440516"
       y="-215.89748">0</tspan></text>
</svg>